<svg width="51" height="50" viewBox="0 0 51 50" fill="none" xmlns="http://www.w3.org/2000/svg">
<path d="M9.66718 12.5086L22.109 8.1174C22.3244 8.04139 22.5593 8.04139 22.7747 8.1174L35.2165 12.5086C35.6164 12.6498 35.8837 13.0277 35.8837 13.4516V22.4356C35.8837 26.8473 34.0621 31.0632 30.8496 34.0868L23.1272 41.3549C22.7422 41.7173 22.1415 41.7173 21.7565 41.3549L14.0342 34.0868C10.8216 31.0632 9 26.8473 9 22.4356V13.4516C9 13.0277 9.26737 12.6498 9.66718 12.5086Z" stroke="black"/>
<path d="M43.0002 21.4418H19.2793V16.9069C19.2793 16.3546 19.727 15.9069 20.2793 15.9069H42.0002C42.5525 15.9069 43.0002 16.3546 43.0002 16.9069V21.4418Z" fill="#EBE9E3"/>
<path d="M19.2793 33.093V24.9999H43.0002V33.093C43.0002 33.6453 42.5525 34.093 42.0002 34.093H20.2793C19.727 34.093 19.2793 33.6453 19.2793 33.093Z" fill="#EBE9E3"/>
<path d="M43.0002 21.4418H19.2793V16.9069C19.2793 16.3546 19.727 15.9069 20.2793 15.9069H42.0002C42.5525 15.9069 43.0002 16.3546 43.0002 16.9069V21.4418Z" stroke="black"/>
<path d="M19.2793 33.093V24.9999H43.0002V33.093C43.0002 33.6453 42.5525 34.093 42.0002 34.093H20.2793C19.727 34.093 19.2793 33.6453 19.2793 33.093Z" stroke="black"/>
</svg>
