<svg width="51" height="50" viewBox="0 0 51 50" fill="none" xmlns="http://www.w3.org/2000/svg">
<path d="M25.2377 7.48359L9 14.7218L25.2298 22.2413C25.3897 22.3154 25.5742 22.3154 25.7342 22.2413L41.964 14.7218L25.7263 7.48359C25.5708 7.41428 25.3932 7.41428 25.2377 7.48359Z" fill="#EBE9E3" stroke="black" stroke-linecap="round" stroke-linejoin="round"/>
<path d="M25.175 21.9093L9 14.7205V34.3341C9 34.569 9.13703 34.7822 9.35066 34.8798L25.5313 42.2726V22.4576C25.5313 22.2205 25.3916 22.0056 25.175 21.9093Z" fill="#EBE9E3" stroke="black" stroke-linecap="round" stroke-linejoin="round"/>
<path d="M25.5312 22.4576V42.2726L41.7119 34.8798C41.9255 34.7822 42.0625 34.5666 42.0625 34.3317V14.7205L25.8876 21.9093C25.6709 22.0056 25.5312 22.2205 25.5312 22.4576Z" fill="#EBE9E3" stroke="black" stroke-linecap="round" stroke-linejoin="round"/>
<path d="M31.4748 19.3614L16.666 11.5L21.3608 9.2475L36.3444 17.1139V28.3516L34.0969 25.7295L31.4748 28.7262V19.3614Z" fill="#EBE9E3" stroke="black" stroke-linecap="round"/>
</svg>
